# xmcd
#
# Track frame offsets:
#	150
#	16225
#	32619
#	49985
#	69327
#	82915
#	99823
#	125817
#	143710
#	159548
#
# Disc length: 2425 seconds
#
# Revision: 1
# Processed by: cddbd v1.5.2PL0 Copyright (c) Steve Scherf et al.
# Submitted via: audiograbber 1.83.01
#
DISCID=7709770a
DTITLE=Aaron Lewis - State I'm In
DYEAR=2019
DGENRE=Country
TTITLE0=The Party's Over
TTITLE1=Can't Take Back
TTITLE2=Reconsider
TTITLE3=It Keeps On Workin'
TTITLE4=State I'm In
TTITLE5=God and Guns
TTITLE6=Love Me
TTITLE7=If I Were The Devil
TTITLE8=Burnt The Sawmill Down
TTITLE9=The Bottom
EXTD=
EXTT0=
EXTT1=
EXTT2=
EXTT3=
EXTT4=
EXTT5=
EXTT6=
EXTT7=
EXTT8=
EXTT9=
PLAYORDER=
